<?xml version="1.0" encoding="UTF-8"?>
<svg id="Layer_1" xmlns="http://www.w3.org/2000/svg" version="1.1" viewBox="0 0 300 300">
  <!-- Generator: Adobe Illustrator 29.8.3, SVG Export Plug-In . SVG Version: 2.1.1 Build 3)  -->
  <polygon points="206.46 128.29 151.3 270.34 93.54 128.29 206.46 128.29"/>
  <polygon points="125.34 261.9 9.19 128.29 73.11 128.29 125.34 261.9"/>
  <polygon points="290.17 128.29 175.32 261.9 226.9 128.29 290.17 128.29"/>
  <polygon points="203.21 109.47 96.79 109.47 149.68 59.72 203.21 109.47"/>
  <polygon points="68.25 109.47 8.54 109.47 38.07 60.82 68.25 109.47"/>
  <polygon points="291.46 109.47 232.42 109.47 261.94 60.82 291.46 109.47"/>
  <polygon points="122.75 58.23 82.2 97.14 57.85 58.23 122.75 58.23"/>
  <polygon points="240.2 58.23 216.52 96.48 176.61 58.23 240.2 58.23"/>
</svg>